<?xml version="1.0" encoding="UTF-8"?>
<svg xmlns="http://www.w3.org/2000/svg" xmlns:xlink="http://www.w3.org/1999/xlink" viewBox="0 0 465.77 402.45">
  <defs>
    <style>
      .cls-1, .cls-2 {
        fill: #fff;
      }

      .cls-3, .cls-4 {
        stroke-width: 4px;
      }

      .cls-3, .cls-4, .cls-5, .cls-6, .cls-7, .cls-8, .cls-9, .cls-10, .cls-2, .cls-11 {
        stroke-miterlimit: 10;
      }

      .cls-3, .cls-4, .cls-5, .cls-6, .cls-7, .cls-8, .cls-9, .cls-11 {
        stroke: #21190d;
      }

      .cls-3, .cls-5, .cls-7, .cls-11 {
        fill: none;
      }

      .cls-4, .cls-10 {
        fill: #620303;
      }

      .cls-5 {
        stroke-width: 11px;
      }

      .cls-6, .cls-7 {
        stroke-width: 3px;
      }

      .cls-6, .cls-12 {
        fill: #21190d;
      }

      .cls-13 {
        fill: #fcd0c0;
      }

      .cls-14 {
        clip-path: url(#clippath-1);
      }

      .cls-8 {
        fill: #e63f25;
      }

      .cls-9 {
        fill: #c7b299;
      }

      .cls-10 {
        stroke: #620303;
        stroke-width: .75px;
      }

      .cls-15 {
        clip-path: url(#clippath);
      }

      .cls-2 {
        stroke: #fff;
      }
    </style>
    <clipPath id="clippath">
      <path class="cls-11" d="M262.56,60.21l176.47-22.21,.68-.08c8.12,66.46,8.68,213.1-118.87,272.96-127.55,59.86-286.17,37.81-286.17,37.81,0,0,174.32-31.62,237.1-114.83,25.67-34.01-9.44-173.59-9.44-173.59l.23-.06Z"/>
    </clipPath>
    <clipPath id="clippath-1">
      <path class="cls-11" d="M440.66,37.07c-2.13-17.45-44.17-26.67-93.89-20.6-119.24,16.3-111.94,76.07,7.72,63.19,49.72-6.07,88.3-25.14,86.17-42.59Z"/>
    </clipPath>
  </defs>
  <g id="Layer_5" data-name="Layer 5">
    <path class="cls-1" d="M368.21,186.98c0,81.21-59.61,147.04-133.15,147.04s-141.87-4.96-152.86-85.35c-14.76-108.05,46.03-212.92,176.31-208.73,73.5,2.37,109.7,65.83,109.7,147.04Z"/>
    <g>
      <path class="cls-12" d="M144.29,310.97c-.45-.98-.69-1.5-1.18-2.54,.96-.36,1.45-.55,2.42-.93-3.22-6.64-5.43-10.76-8.65-17.4-.86,.45-1.29,.67-2.15,1.1-.49-1.04-.73-1.55-1.18-2.54,3.36-1.78,5.06-2.78,8.46-4.87,.54,1.05,.81,1.59,1.39,2.68-.92,.54-1.38,.8-2.29,1.32,3.46,6.8,5.74,10.93,9.2,17.73,1.66-.72,2.49-1.1,4.16-1.87-1.52-2.87-2.35-4.39-3.99-7.42,1.57-.81,2.36-1.23,3.93-2.08,2.39,4.24,3.6,6.39,5.72,10.28-6.43,2.97-9.63,4.35-15.83,6.54Z"/>
      <path class="cls-12" d="M170.73,282.55c5.78,8.74,5.82,14.34,.37,17.06-2.81,1.4-5.45,1.44-7.91,.1-2.46-1.34-4.85-4.1-7.28-8.33-1.63-2.83-2.69-5.36-3.21-7.57-.52-2.21-.52-4.1-.02-5.71,.49-1.61,1.42-2.92,2.82-3.93,2.1-1.52,4.35-1.69,6.92-.34,2.58,1.34,5.39,4.27,8.33,8.72Zm-9.77,6.1c2.18,3.61,3.81,5.94,4.95,7.01,1.14,1.08,2.22,1.34,3.26,.79,1.01-.53,1.31-1.53,.86-3.02-.44-1.49-1.81-4.05-4.11-7.69-2.51-3.98-4.33-6.52-5.47-7.65-1.14-1.13-2.14-1.36-3.04-.75-.96,.65-1.15,1.78-.58,3.42,.57,1.64,1.94,4.26,4.13,7.89Z"/>
      <path class="cls-12" d="M182.03,293.49c-.81-1.21-1.23-1.82-2.06-3.04,.93-.51,1.39-.76,2.31-1.27-5.36-7.76-8.21-11.86-13.57-19.62-.77,.56-1.16,.84-1.95,1.41-.83-1.22-1.24-1.83-2.06-3.04,2.46-1.86,3.66-2.8,6.03-4.63,3.94,2.81,6,4.29,10.2,7.28,3.1,2.59,4.68,3.91,7.88,6.55,.05-.03,.07-.04,.12-.07-2.65-3.13-3.97-4.7-6.59-7.82-1.88-2.49-2.83-3.73-4.7-6.22-.72,.53-1.08,.8-1.82,1.34-.95-1.28-1.42-1.92-2.37-3.19,2.67-2.09,3.96-3.06,6.48-5.13,1.05,1.32,1.58,1.98,2.63,3.31-.7,.54-1.05,.81-1.76,1.34,6.21,7.96,12.43,15.92,18.64,23.87-1.46,.74-2.2,1.1-3.69,1.85-4.74-3.27-7.05-4.86-11.55-8.01-1.22-.85-2.62-1.93-4.2-3.21-2.39-1.95-3.57-2.93-5.88-4.84-.05,.03-.07,.05-.11,.08,2.39,3.1,3.61,4.66,6.03,7.79,2.52,3.52,3.78,5.28,6.27,8.76,.9-.49,1.35-.74,2.24-1.23,.92,1.27,1.38,1.9,2.3,3.16-3.49,1.8-5.27,2.73-8.85,4.59Z"/>
      <path class="cls-12" d="M203.16,267.38c-1.18-1.37-1.76-2.05-2.94-3.42,2.35-1.74,3.51-2.63,5.79-4.47,.95,1.05,1.42,1.58,2.37,2.63,3.37,3.73,5.43,7.05,6.08,9.89,.64,2.85-.19,4.95-2.43,6.29-1.1,.66-2.36,.97-3.76,.96-1.4,0-2.89-.4-4.47-1.15-1.58-.75-3.14-1.88-4.69-3.39-1.55-1.51-3.45-3.65-5.7-6.42-4.07-5.01-6.6-8.99-7.71-11.98s-.89-5.23,.72-6.73c.9-.84,2.16-1.11,3.83-.79-.38-.43-.57-.65-.94-1.08,1.11-1.06,1.65-1.6,2.73-2.69,3.36,3.74,5.04,5.61,8.4,9.35-1.21,1.05-1.82,1.57-3.05,2.59-3.47-3.98-5.84-5.38-7.13-4.24-.49,.43-.64,1.01-.44,1.74,.19,.73,.86,1.87,1.99,3.44,1.13,1.57,2.96,3.86,5.51,6.88,2.77,3.29,4.86,5.66,6.25,7.1,1.4,1.44,2.48,2.34,3.25,2.69,.77,.35,1.49,.32,2.15-.1,.95-.6,1.06-1.59,.31-2.95-.75-1.36-2.14-3.2-4.17-5.53-.77,.55-1.15,.83-1.93,1.37Z"/>
      <path class="cls-12" d="M213.99,253.24c4,4.15,6,6.22,10.01,10.37,.53-.42,.79-.63,1.32-1.05,1.4,1.43,2.09,2.15,3.49,3.58-3.06,2.35-4.63,3.48-7.81,5.67-1.29-1.4-1.94-2.11-3.23-3.51,.89-.64,1.33-.96,2.21-1.61-6.91-7.39-13.83-14.79-20.74-22.18-.69,.7-1.03,1.05-1.73,1.74-1.29-1.4-1.94-2.11-3.23-3.51,2.32-2.43,3.45-3.68,5.64-6.23,1.4,1.43,2.09,2.15,3.49,3.58-.41,.45-.61,.67-1.03,1.12,3.27,3.39,4.9,5.08,8.17,8.47,1.36-1.29,2.03-1.95,3.35-3.28-3.4-3.42-5.1-5.13-8.5-8.54-.4,.46-.6,.69-1.01,1.14-1.41-1.44-2.12-2.15-3.53-3.59,2.17-2.57,3.22-3.89,5.26-6.58,1.52,1.46,2.28,2.19,3.8,3.64-.62,.77-.93,1.15-1.56,1.91,7.79,7.6,15.59,15.19,23.38,22.79,.82-.72,1.23-1.09,2.04-1.82,1.52,1.46,2.28,2.19,3.8,3.64-2.92,2.54-4.41,3.76-7.45,6.14-1.41-1.44-2.12-2.15-3.53-3.59,.52-.43,.78-.64,1.3-1.07-4.16-4.19-6.25-6.28-10.41-10.46-1.38,1.32-2.08,1.97-3.49,3.25Z"/>
      <path class="cls-12" d="M233.79,229.82c12.31,10.43,16.76,17.86,12.78,21.84-2.04,2.04-5.06,2.2-8.8,.58-3.74-1.62-8.31-5.03-13.83-10.23-3.7-3.48-6.59-6.63-8.73-9.44-2.14-2.82-3.52-5.27-4.16-7.37-.63-2.1-.53-3.79,.3-5.09,1.26-1.96,3.62-2.18,7.37-.6,3.74,1.58,8.79,5.01,15.06,10.32Zm-6.16,8.41c4.84,4.41,8.25,7.27,10.27,8.58s3.43,1.59,4.17,.81c.72-.76,.31-2.08-1.24-3.97s-4.84-5.03-9.84-9.42c-5.46-4.8-9.22-7.89-11.26-9.26-2.04-1.37-3.32-1.65-3.87-.83-.59,.86,0,2.31,1.8,4.37s5.11,5.3,9.97,9.73Z"/>
      <path class="cls-12" d="M240.52,222.53c5.18,4.07,7.77,6.1,12.92,10.2,.57-.88,.86-1.32,1.42-2.2,1.9,1.48,2.85,2.23,4.74,3.72-2.39,3.59-3.63,5.33-6.3,8.7-1.77-1.49-2.65-2.23-4.42-3.72,.72-.95,1.07-1.42,1.76-2.39-9.46-7.77-18.98-15.48-28.45-23.25-.46,.96-.7,1.44-1.18,2.38-1.77-1.48-2.66-2.23-4.42-3.72,1.34-2.81,1.94-4.25,3.06-7.16,.95-2.46,2.59-3.68,5.12-3.63,2.53,.05,5.53,1.31,8.92,3.79,4.39,3.21,7.16,6.8,8.07,10.75,6.68,3.22,10.09,4.81,17,8.02,.42-.74,.63-1.11,1.05-1.86,2.02,1.47,3.02,2.21,5.03,3.7-1.25,2.12-1.89,3.16-3.19,5.22-8.28-4.15-12.38-6.19-20.37-10.32-.13,.51-.37,1.1-.74,1.76Zm-16.5-13.01c4.71,3.74,7.08,5.6,11.81,9.32,.81-1.56,.89-3.08,.24-4.53-.65-1.44-2.07-2.98-4.22-4.62-2.27-1.73-3.99-2.58-5.14-2.55-1.15,.03-2.03,.82-2.69,2.37Z"/>
      <path class="cls-12" d="M265.73,224.32c-2.02-1.48-3.04-2.22-5.08-3.7,.47-.86,.71-1.29,1.18-2.16-10.84-7.68-21.79-15.21-32.64-22.9-.28,.84-.42,1.26-.71,2.1-2.04-1.47-3.05-2.21-5.08-3.7,.83-2.71,1.23-4.07,2.03-6.84,6.77,3,10.28,4.45,17.46,7.3,5.65,2.61,8.53,3.89,14.32,6.47,.02-.05,.04-.08,.06-.13-5.66-3.38-8.5-5.06-14.14-8.45-4.27-2.76-6.41-4.14-10.64-6.93-.28,.86-.42,1.29-.7,2.15-2.17-1.46-3.26-2.19-5.41-3.66,.95-3.24,1.42-4.88,2.46-8.19,2.26,1.46,3.39,2.18,5.67,3.62-.3,.88-.45,1.33-.74,2.21,13.69,8.77,27.59,17.2,41.22,26.07-.81,1.49-1.21,2.23-2.01,3.71-7.83-3.04-11.73-4.51-19.36-7.5-2.07-.81-4.53-1.87-7.37-3.17-4.31-1.98-6.45-2.98-10.65-5-.02,.05-.03,.08-.04,.13,5.4,3.53,8.13,5.28,13.58,8.79,5.92,4,8.89,6,14.75,10.05,.46-.87,.69-1.31,1.14-2.19,2.15,1.46,3.22,2.19,5.34,3.67-1.84,3.35-2.76,5-4.64,8.25Z"/>
    </g>
  </g>
  <g id="Layer_3" data-name="Layer 3">
    <g>
      <path class="cls-6" d="M262.56,60.21l176.47-22.21,.68-.08c8.12,66.46,8.68,213.1-118.87,272.96-127.55,59.86-286.17,37.81-286.17,37.81,0,0,174.32-31.62,237.1-114.83,25.67-34.01-9.44-173.59-9.44-173.59l.23-.06Z"/>
      <g>
        <g class="cls-15">
          <path class="cls-9" d="M260.12,236.53c12.12-2.5,21.09-14.14,27.05-28.72,7.79,5.37,18.17,21.01,19.69,33.46,8.22-3.43,19.67-16.21,27.03-29.16,10.81,9.43,16.72,15.31,24.74,32.82,6.28-3.87,17.61-14.74,26.66-26.08,10.15,8.96,16.36,40.68,11.82,50.1l6.13,.11,3.3,80.71c-119.98,54.51-215.07,55.39-270.15,50.06-41.57-4.03-110.87-10.74-120.23-45.58-7.59-28.25,25.93-68.68,81.59-99.56l160-22.71"/>
        </g>
        <path class="cls-11" d="M262.56,60.21l176.47-22.21,.68-.08c8.12,66.46,8.68,213.1-118.87,272.96-127.55,59.86-286.17,37.81-286.17,37.81,0,0,174.32-31.62,237.1-114.83,25.67-34.01-9.44-173.59-9.44-173.59l.23-.06Z"/>
      </g>
      <path class="cls-12" d="M262.26,58.74s177.26-22.31,177.26-22.31c0,0,1.5-.19,1.5-.19,6.44,51.21,4.71,104.18-11.33,153.62-19.36,59.63-58.98,103.85-116.73,128.48-80.28,34.97-173,43.32-259.71,37.55-13.48-.75-39.67-4.47-53.25-6.01,17.48-3.46,43.67-8.11,60.61-12.19,46.91-11.21,93.28-26.36,136.09-48.76,22.08-11.85,43.49-25.78,61.09-43.74,0,0,4.68-4.96,4.68-4.96,2.13-2.32,4.5-5.41,6.55-7.83,10.99-14.59,9.78-44.39,9-62.29-2.32-36.83-8.93-73.5-17.15-109.47,0,0-.34-1.45-.34-1.45,0,0,1.4-.36,1.4-.36,0,0,.33-.08,.33-.08h0Zm.58,2.94l-.12,.04s1.06-1.81,1.06-1.81c8.92,36.15,16.18,72.69,19.18,109.88,1.12,18.73,2.14,38.17-3.84,56.32-1.21,3.46-2.96,7.04-5.24,9.99-1.11,1.39-3.32,4.17-4.43,5.56-14.21,17.25-32.19,31.31-50.92,43.34-23.71,15.01-49.35,27.06-75.43,37.25-34.93,13.49-70.79,24.17-107.49,31.77,0,0-.22-10.68-.22-10.68,24.94,3.19,50.33,4.35,75.5,4.38,56.78-.18,114.04-6.83,168.18-24.39,17.92-5.8,35.66-12.99,52.28-21.69,21.9-11.94,42-28.01,57.67-47.46,48.41-59.78,57.21-141.79,49.18-216.07,0,0,1.67,1.31,1.67,1.31l-177.04,22.27h0Z"/>
      <g>
        <path class="cls-8" d="M440.66,37.07c-2.13-17.45-44.17-26.67-93.89-20.6-119.24,16.3-111.94,76.07,7.72,63.19,49.72-6.07,88.3-25.14,86.17-42.59Z"/>
        <g>
          <g class="cls-14">
            <g>
              <line class="cls-7" x1="241.17" y1="60.43" x2="399.17" y2="1.41"/>
              <line class="cls-7" x1="248.88" y1="66.3" x2="406.88" y2="7.27"/>
              <line class="cls-7" x1="263.22" y1="68.82" x2="421.22" y2="9.79"/>
              <line class="cls-7" x1="270.93" y1="74.68" x2="428.93" y2="15.66"/>
              <line class="cls-7" x1="277.49" y1="80.65" x2="435.49" y2="21.63"/>
              <line class="cls-7" x1="285.2" y1="86.52" x2="443.2" y2="27.5"/>
              <line class="cls-7" x1="299.54" y1="89.04" x2="457.54" y2="30.01"/>
              <line class="cls-7" x1="307.25" y1="94.91" x2="465.25" y2="35.88"/>
            </g>
            <path class="cls-3" d="M439.03,36.6c-2.08-17.02-43.46-25.97-92.43-19.99-117.43,16.03-110.3,74.34,7.53,61.64,48.97-5.98,86.98-24.63,84.9-41.65Z"/>
            <path class="cls-5" d="M440.47,35.99c-1.81-14.83-42.76-23.15-92.2-17.11-49.44,6.04-89.65,23.97-87.83,38.8,3.47,28.43,15.13,32.84,94.2,23.18,74.89-9.15,87.71-29.46,85.83-44.87Z"/>
          </g>
          <path class="cls-11" d="M440.66,37.07c-2.13-17.45-44.17-26.67-93.89-20.6-119.24,16.3-111.94,76.07,7.72,63.19,49.72-6.07,88.3-25.14,86.17-42.59Z"/>
        </g>
      </g>
    </g>
  </g>
  <g id="Layer_4" data-name="Layer 4">
    <g>
      <path class="cls-4" d="M379.68,9.96c-10.47-1.95-29.03-2.47-46.12,1.51-15.63,3.64-23.42,9.63-20.73,20.64,1.78,7.29,9.57,2.61,11.8,5.89,1.51,2.23-1.35,5.52-9.64,8.54-8.42,3.07-15.27,4.05-18.19,7.36-2.51,2.84,.4,13.29,4.27,14.95,10.37,4.44,38.18,1.54,51.28-.83,37.8-6.84,59.08-20.64,58.24-33.92-.08-1.3-.35-4.39-1.13-7.43-2.93-11.35-20.46-14.97-29.76-16.71Z"/>
      <path class="cls-2" d="M378.69,10.61c-9.43-1.31-26.51-2.51-42.66,1.27-14.77,3.45-22.89,8.34-22.14,14.27s10.69,3.07,13.57,5.98c3.67,3.71-2.82,10.43-9.9,13.95-7.64,3.8-13.92,4.15-16.75,7.24-2.43,2.66-.53,5.16,3.06,6.68,9.63,4.09,31.91,.73,44.27-1.53,35.67-6.53,68.49-24.23,57.4-36.59-5.42-6.04-19.3-10.2-26.86-11.25Z"/>
      <path class="cls-10" d="M377.58,12.58c-8.89-1.16-24.15-2.54-39.38,.93-13.93,3.17-21.85,6.51-21.15,11.88s8.35,2.48,11.6,4.15c4.91,2.52,2.06,10.6-6.06,16.18-6.72,4.62-15.51,6.35-17.99,7.57-2.86,1.4-2.85,4.7,2.88,6.05,8.55,2.03,29.81-1.48,41.47-3.57,33.64-6.02,63.46-22.36,53.03-33.54-5.1-5.46-17.26-8.73-24.39-9.66Z"/>
      <g>
        <path class="cls-1" d="M358.26,22.41c-4.37,2.11-12.74,3.25-18.69,2.53-5.95-.72-5.98-3.56-1.61-5.68,4.37-2.11,10.61-2.98,16.56-2.26,5.95,.72,8.11,3.3,3.74,5.41Z"/>
        <path class="cls-13" d="M358.77,23.46c-6.9,3.27-14.46,4.02-21.79,2.1-4.15-1.36-3.88-4.78-.21-6.56,4.42-2.12,9.36-2.64,14.19-2.71,2.99,.07,6.33-.08,9.14,1.5,2.87,1.82,1.07,4.56-1.33,5.68h0Zm-1.02-2.11c.64-.25,1.67-.81,1.81-1.33-.05-.6-1.21-1.23-1.86-1.5-4.23-1.63-9.29-1.61-13.74-.66-4.74,.93-13.74,5.56-3.06,5.91,5.61-.01,11.57-.54,16.84-2.42h0Z"/>
      </g>
    </g>
  </g>
</svg>