<?xml version="1.0" encoding="UTF-8"?>
<svg id="Layer_3" data-name="Layer 3" xmlns="http://www.w3.org/2000/svg" xmlns:xlink="http://www.w3.org/1999/xlink" viewBox="0 0 497.46 381.71">
  <defs>
    <style>
      .cls-1 {
        stroke-width: 4px;
      }

      .cls-1, .cls-2, .cls-3, .cls-4, .cls-5, .cls-6, .cls-7, .cls-8 {
        stroke: #000;
        stroke-miterlimit: 10;
      }

      .cls-1, .cls-2, .cls-3, .cls-5, .cls-6, .cls-7, .cls-9 {
        fill: none;
      }

      .cls-10, .cls-8 {
        fill: #fff;
      }

      .cls-2 {
        stroke-width: 11px;
      }

      .cls-4, .cls-5 {
        stroke-width: 3px;
      }

      .cls-11 {
        clip-path: url(#clippath-1);
      }

      .cls-6 {
        stroke-width: 2px;
      }

      .cls-12 {
        clip-path: url(#clippath);
      }

      .cls-7 {
        stroke-width: 5px;
      }
    </style>
    <clipPath id="clippath">
      <path class="cls-9" d="M280.51,48.96l177.86-.65h.68c0,66.96-17.22,212.58-151.08,256.53-133.86,43.95-288.65,2.84-288.65,2.84,0,0,176.87-10.25,249.28-85.23,29.6-30.65,11.68-173.46,11.68-173.46l.23-.03Z"/>
    </clipPath>
    <clipPath id="clippath-1">
      <path class="cls-9" d="M460.11,47.59c0-17.58-40.61-31.83-90.7-31.83-120.34,1.72-120.33,61.94,0,63.66,50.09,0,90.7-14.25,90.7-31.83Z"/>
    </clipPath>
  </defs>
  <g>
    <path class="cls-4" d="M280.51,48.96l177.86-.65h.68c0,66.96-17.22,212.58-151.08,256.53-133.86,43.95-288.65,2.84-288.65,2.84,0,0,176.87-10.25,249.28-85.23,29.6-30.65,11.68-173.46,11.68-173.46l.23-.03Z"/>
    <g class="cls-12">
      <path class="cls-10" d="M256.71,223.69c12.34-1.01,22.65-11.48,30.34-25.23,7.08,6.27,15.49,23.06,15.49,35.6,8.58-2.41,21.5-13.71,30.37-25.67,9.59,10.67,14.75,17.22,20.58,35.58,6.7-3.08,19.26-12.5,29.63-22.65,8.98,10.13,11.31,42.36,5.66,51.17l6.07,.85-6.51,80.52c-125.71,39.56-220.2,28.91-274.22,16.94-40.78-9.04-108.76-24.1-113.82-59.82-4.1-28.96,34.07-65.03,93.06-88.94l161.57-3.14"/>
    </g>
    <path class="cls-5" d="M280.51,48.96l177.86-.65h.68c0,66.96-17.22,212.58-151.08,256.53-133.86,43.95-288.65,2.84-288.65,2.84,0,0,176.87-10.25,249.28-85.23,29.6-30.65,11.68-173.46,11.68-173.46l.23-.03Z"/>
    <g>
      <path class="cls-8" d="M460.11,47.59c0-17.58-40.61-31.83-90.7-31.83-120.34,1.72-120.33,61.94,0,63.66,50.09,0,90.7-14.25,90.7-31.83Z"/>
      <g class="cls-11">
        <g>
          <line class="cls-6" x1="259.26" y1="46.59" x2="423.25" y2="7.15"/>
          <line class="cls-6" x1="266.2" y1="53.35" x2="430.19" y2="13.91"/>
          <line class="cls-6" x1="280.13" y1="57.58" x2="444.12" y2="18.15"/>
          <line class="cls-6" x1="287.07" y1="64.34" x2="451.06" y2="24.91"/>
          <line class="cls-6" x1="292.86" y1="71.06" x2="456.85" y2="31.63"/>
          <line class="cls-6" x1="299.8" y1="77.82" x2="463.79" y2="38.39"/>
          <line class="cls-6" x1="313.73" y1="82.06" x2="477.72" y2="42.63"/>
          <line class="cls-6" x1="320.67" y1="88.82" x2="484.66" y2="49.38"/>
        </g>
        <path class="cls-1" d="M458.55,46.92c0-17.15-39.99-31.05-89.32-31.05-118.51,1.67-118.5,60.42,0,62.1,49.33,0,89.32-13.9,89.32-31.05Z"/>
        <path class="cls-2" d="M460.05,46.49c0-14.94-39.64-28.16-89.44-28.16s-91.89,12.92-91.89,27.86c0,28.65,11.04,34.43,90.7,34.43,75.45,0,90.64-18.61,90.64-34.13Z"/>
      </g>
    </g>
  </g>
  <g>
    <g>
      <path d="M430.77,237.41l65.76,94.73-16.02,.62-57.61-83.01c3.82-3.05,6.63-7.37,7.87-12.34Z"/>
      <path class="cls-10" d="M431.48,231.63c0,1.99-.24,3.93-.71,5.78l-6.89-9.93-10.85,8.07,9.86,14.2c-3.75,3.03-8.47,4.84-13.58,4.84-.5,0-1.02-.02-1.5-.07v-26.76h-12.95v21.25c-4.72-4.2-7.71-10.43-7.71-17.38,0-12.67,9.93-22.96,22.17-22.96s22.17,10.28,22.17,22.96Z"/>
      <path class="cls-10" d="M423.88,227.48l6.89,9.93c-1.24,4.97-4.06,9.29-7.87,12.34l-9.86-14.2,10.85-8.07Z"/>
      <path d="M407.81,254.52v78.24h-12.95v-83.75c3.52,3.15,8.02,5.17,12.95,5.51Z"/>
      <path class="cls-10" d="M407.81,227.77v26.76c-4.93-.33-9.43-2.36-12.95-5.51v-21.25h12.95Z"/>
    </g>
    <g>
      <polyline class="cls-3" points="407.81 254.52 407.81 332.76 394.86 332.76 394.86 249.01"/>
      <polyline class="cls-3" points="430.77 237.41 496.53 332.14 480.5 332.76 422.89 249.75"/>
      <path class="cls-7" d="M394.86,249.01c-4.72-4.2-7.71-10.43-7.71-17.38,0-12.67,9.93-22.96,22.17-22.96s22.17,10.28,22.17,22.96c0,1.99-.24,3.93-.71,5.78-1.24,4.97-4.06,9.29-7.87,12.34-3.75,3.03-8.47,4.84-13.58,4.84-.5,0-1.02-.02-1.5-.07-4.93-.33-9.43-2.36-12.95-5.51Z"/>
    </g>
  </g>
</svg>